<?xml version="1.0" encoding="utf-8"?>
<!-- Generator: Adobe Illustrator 15.1.0, SVG Export Plug-In . SVG Version: 6.00 Build 0)  -->
<!DOCTYPE svg PUBLIC "-//W3C//DTD SVG 1.1//EN" "http://www.w3.org/Graphics/SVG/1.1/DTD/svg11.dtd">
<svg version="1.1" id="Calque_1" xmlns="http://www.w3.org/2000/svg" xmlns:xlink="http://www.w3.org/1999/xlink" x="0px" y="0px"
	 width="100px" height="59.397px" viewBox="-1.039 21.261 100 59.397" enable-background="new -1.039 21.261 100 59.397"
	 xml:space="preserve">
<path d="M98.771,55.553c0.315-0.421,0.229-1.015-0.189-1.331c-0.246-0.17-0.742-0.798-1.211-1.511
	c-0.281-0.427-0.57-0.875-0.863-1.315l-0.667-4.167h-3.045c-3.411-2.87-7.813-4.602-12.619-4.602c-2.857,0-5.569,0.622-8.02,1.721
	l-3.038-5.634c-0.091-0.169-0.215-0.312-0.354-0.426l2.902-5.264c0.097,0.253,0.271,0.465,0.59,0.562
	c1.166,0.356,4.423-1.005,4.423-1.005l-0.182-0.633c0.792-0.015,1.418-0.045,1.702-0.087c1.256-0.18,1.734-3.108,1.256-3.826
	c-0.478-0.717-4.484,0.059-6.458,0.059c-1.973,0-10.404-0.539-9.866,0.897c0.538,1.435,5.562,1.614,5.74,2.332
	c0.041,0.165,0.504,0.292,1.188,0.387l-3.21,5.825c-0.345,0.103-0.656,0.333-0.846,0.673L55.562,56.925l-0.605-0.044
	c-0.117-0.008-0.224,0.015-0.33,0.044c-0.253-0.032-0.499-0.077-0.76-0.077c-2.346,0-4.357,1.359-5.34,3.324
	c-0.485-0.309-0.98-0.645-1.485-1.03c-2.575-1.933-5.336-4.677-7.853-7.753c-2.694-3.289-5.176-7.531-6.96-10.932
	c-0.894-1.701-1.616-3.193-2.113-4.257c-0.297-0.635-0.501-1.089-0.626-1.372c0.567-2.573,0.904-4.243,0.905-4.249
	c0.043-0.214,0.039-0.427-0.015-0.638l-1.194-4.674l1.376-0.998c0.051-0.037,0.1-0.077,0.146-0.121
	c0.578,0.074,1.696,0.335,2.858,0.625c0.004,0.001,0.011,0.002,0.016,0.002c0.162,0.326,0.417,0.864,0.937,1.345
	c0.679,0.626,1.764,1.06,3.459,1.06c0.01,0,0.018,0,0.029,0c0.464,0,0.977-0.03,1.55-0.097c0.393-0.044,0.677-0.398,0.631-0.792
	c-0.046-0.395-0.399-0.678-0.794-0.631c-0.527,0.059-0.986,0.086-1.387,0.086c-1.242-0.019-1.892-0.232-2.293-0.507
	c0.806,0.148,1.619,0.255,2.402,0.258c0.369,0,0.738-0.024,1.108-0.089c0.779-0.139,1.301-0.881,1.163-1.661
	c-0.137-0.781-0.882-1.302-1.662-1.164h-0.001c-0.158,0.029-0.363,0.045-0.607,0.045c-0.989,0.006-2.48-0.304-3.877-0.644
	c-1.435-0.333-2.691-0.703-3.826-0.723c-0.339,0.009-0.705,0.017-1.187,0.261c-0.263,0.111-0.519,0.374-0.699,0.682l-1.812,1.312
	c-0.479,0.346-0.696,0.947-0.55,1.517l1.354,5.3c-0.285,1.385-1.479,7.085-3.055,13.312c-1.605-0.657-3.307-1.108-5.089-1.292
	c0.015-0.067,0.041-0.13,0.041-0.204v-0.812c0.671-0.233,1.092-0.782,1.092-2.081c0-1.214-1.853-2.198-4.137-2.198
	c0,0-0.61,0.004-0.61,2.216c0,2.21,0.61,2.18,0.61,2.18c0.401,0,0.781,0.016,1.148,0.03v0.668c0,0.037,0.017,0.069,0.021,0.106
	c-0.023,0-0.044-0.003-0.067-0.003c-0.69,0-1.337,0.026-1.943,0.071c-0.523,0.04-0.915,0.497-0.874,1.019
	c0.02,0.264,0.148,0.494,0.334,0.652C5.948,45.172-1.039,52.883-1.039,62.24c0.001,10.174,8.245,18.415,18.417,18.418
	c9.049-0.003,16.555-6.53,18.108-15.13c0.168,0.132,0.36,0.222,0.574,0.222c0.132,0,0.267-0.028,0.396-0.087
	c0.477-0.221,0.686-0.782,0.465-1.262c-0.199-0.364-0.283-1.67-0.267-2.026c0-0.076,0.002-0.106,0.002-0.106
	c-0.013-7.386-3.853-13.833-9.57-17.301c0.157-0.612,0.312-1.221,0.462-1.822c0.323-1.304,0.627-2.569,0.908-3.768
	c1.818,3.691,4.904,9.411,8.512,13.834c2.641,3.224,5.53,6.107,8.35,8.227c0.874,0.65,1.736,1.226,2.592,1.722
	c0.171,3.155,2.76,5.669,5.958,5.669c0.419,0,0.827-0.045,1.221-0.127c0.031,0.003,0.06,0.018,0.09,0.018
	c0.036,0,0.076-0.003,0.113-0.006l1.961-0.217c0.009,0.002,0.016,0.011,0.023,0.014l6.38,1.827
	c2.999,6.106,9.26,10.317,16.523,10.317c10.172,0,18.415-8.244,18.417-18.418c0-2.316-0.449-4.525-1.229-6.568
	c0.027,0.022,0.048,0.055,0.074,0.076C97.858,56.058,98.454,55.973,98.771,55.553z M17.376,77.068
	C9.188,77.054,2.562,70.428,2.547,62.237c0.015-8.187,6.639-14.813,14.829-14.829c0.132,0,0.261,0.018,0.392,0.02
	c-0.007,0.069-0.027,0.135-0.021,0.207c0.059,0.56,0.56,0.965,1.12,0.908c0,0,0.056-0.006,0.202-0.006
	c0.448-0.019,1.365,0.137,1.706,0.56c0.201,0.218,0.477,0.33,0.751,0.33c0.247,0,0.495-0.089,0.69-0.27
	c0.232-0.212,0.33-0.508,0.315-0.799c0.204,0.076,0.414,0.141,0.613,0.226c-0.694,2.481-1.421,4.886-2.15,6.952
	c-0.096,0.143-0.17,0.306-0.211,0.481c-0.182,0.927-1.245,2.055-2.39,2.828c-0.187,0.131-0.366,0.238-0.547,0.351
	c-0.156-0.025-0.312-0.048-0.474-0.048c-1.708,0-3.095,1.385-3.095,3.092c0,1.709,1.386,3.095,3.095,3.095
	c1.294,0,2.399-0.798,2.861-1.926c0.525-0.529,0.931-1.177,1.368-1.945c1.421-2.641,2.839-6.906,4.126-11.459
	c3.901,2.669,6.462,7.149,6.473,12.236C32.189,70.428,25.565,77.054,17.376,77.068z M58.583,59.183l1.458,0.104
	c0.07,0.052,0.138,0.094,0.19,0.138c0.421,0.246,0.981,0.454,1.665,0.652c-0.083,0.71-0.138,1.43-0.138,2.161
	c0,1.256,0.128,2.48,0.367,3.665l-3.366,0.373c0.687-0.975,1.096-2.155,1.096-3.438C59.855,61.453,59.37,60.197,58.583,59.183z
	 M76.758,60.811c-1.14-0.175-2.447-0.381-3.815-0.605l3.987,0.283C76.871,60.595,76.806,60.697,76.758,60.811z M65.349,62.237
	c0.001-0.448,0.029-0.887,0.068-1.325c3.479,0.718,7.952,1.443,11.115,1.928c0.085,0.514,0.268,0.99,0.539,1.41l-11.346,1.253
	C65.487,64.452,65.35,63.361,65.349,62.237z M66.078,57.672c1.034-3.186,3.108-5.9,5.832-7.735l1.053,1.95l-0.875,0.451
	c-0.291,0.151-0.39,0.535-0.223,0.86l1.372,2.661c0.167,0.324,0.539,0.466,0.829,0.314l0.945-0.486l1.469,2.725L66.078,57.672z
	 M67.407,41.586l2.229,4.133c-4.115,2.63-7.178,6.749-8.432,11.605l-0.464-0.032c-0.088-0.019-0.168-0.024-0.254-0.019l-1.763-0.126
	L67.407,41.586z M50.745,62.838c0.003-1.722,1.397-3.117,3.121-3.12c1.724,0.003,3.117,1.398,3.119,3.12
	c-0.002,1.724-1.396,3.116-3.119,3.119C52.143,65.954,50.749,64.559,50.745,62.838z M62.231,67.944l0.423-0.045
	c0.027,0.081,0.061,0.16,0.089,0.241L62.231,67.944z M80.177,77.068c-4.521-0.009-8.56-2.038-11.275-5.229l0.779,0.225
	c0.053,0.017,0.108,0.023,0.162,0.023c0.247,0,0.479-0.157,0.561-0.403c0.101-0.3-0.052-0.629-0.346-0.741l-2.496-0.957
	c-0.485-0.787-0.897-1.62-1.228-2.495l14.014-1.55c0.028-0.003,0.045-0.019,0.072-0.022c1.933-0.126,3.467-1.716,3.467-3.681
	c0-2.046-1.66-3.705-3.707-3.705c-0.12,0-0.233,0.023-0.35,0.033l-4.911-9.105c0.126-0.06,0.258-0.115,0.39-0.153
	c0.212-0.066,0.415-0.104,0.555-0.125c0.141-0.02,0.193-0.019,0.193-0.021c0.563-0.026,0.998-0.501,0.973-1.064
	c-0.006-0.115-0.039-0.219-0.08-0.319c1.042-0.234,2.121-0.367,3.23-0.369c8.189,0.016,14.813,6.643,14.828,14.829
	C94.99,70.428,88.366,77.054,80.177,77.068z"/>
</svg>
