<?xml version="1.0" encoding="UTF-8" standalone="no"?>
<!-- Created with Inkscape (http://www.inkscape.org/) -->

<svg
   xmlns:dc="http://purl.org/dc/elements/1.1/"
   xmlns:cc="http://creativecommons.org/ns#"
   xmlns:rdf="http://www.w3.org/1999/02/22-rdf-syntax-ns#"
   xmlns:svg="http://www.w3.org/2000/svg"
   xmlns="http://www.w3.org/2000/svg"
   xmlns:sodipodi="http://sodipodi.sourceforge.net/DTD/sodipodi-0.dtd"
   xmlns:inkscape="http://www.inkscape.org/namespaces/inkscape"
   width="117.841"
   height="117.842"
   id="svg7518"
   version="1.1"
   inkscape:version="0.48.4 r9939"
   sodipodi:docname="smiley_sad.svg"
   inkscape:export-filename="D:\Projects\Unity\GFUnityDev\GlassFitUnity\Assets\Resources\smiley_sad.png"
   inkscape:export-xdpi="305.4938"
   inkscape:export-ydpi="305.4938">
  <defs
     id="defs7520" />
  <sodipodi:namedview
     id="base"
     pagecolor="#ffffff"
     bordercolor="#666666"
     borderopacity="1.0"
     inkscape:pageopacity="0.0"
     inkscape:pageshadow="2"
     inkscape:zoom="0.35"
     inkscape:cx="76.77765"
     inkscape:cy="218.92101"
     inkscape:document-units="px"
     inkscape:current-layer="layer1"
     showgrid="false"
     inkscape:window-width="463"
     inkscape:window-height="423"
     inkscape:window-x="1416"
     inkscape:window-y="50"
     inkscape:window-maximized="0"
     fit-margin-top="0"
     fit-margin-left="0"
     fit-margin-right="0"
     fit-margin-bottom="0" />
  <metadata
     id="metadata7523">
    <rdf:RDF>
      <cc:Work
         rdf:about="">
        <dc:format>image/svg+xml</dc:format>
        <dc:type
           rdf:resource="http://purl.org/dc/dcmitype/StillImage" />
        <dc:title></dc:title>
      </cc:Work>
    </rdf:RDF>
  </metadata>
  <g
     inkscape:label="Layer 1"
     inkscape:groupmode="layer"
     id="layer1"
     transform="translate(-298.22235,-176.29833)">
    <path
       style="fill:#c92020"
       inkscape:connector-curvature="0"
       d="m 416.06335,235.22033 c 0,8.05 -1.555,15.639 -4.659,22.768 -3.106,7.132 -7.306,13.385 -12.598,18.765 -5.294,5.381 -11.527,9.625 -18.7,12.729 -7.174,3.104 -14.828,4.658 -22.965,4.658 -8.136,0 -15.77,-1.554 -22.897,-4.658 -7.132,-3.105 -13.365,-7.326 -18.7,-12.664 -5.338,-5.334 -9.559,-11.568 -12.663,-18.7 -3.104,-7.129 -4.659,-14.763 -4.659,-22.899 0,-8.136 1.555,-15.79 4.659,-22.964 3.104,-7.173 7.349,-13.406 12.729,-18.7 5.38,-5.292 11.634,-9.492 18.766,-12.598 7.129,-3.104 14.718,-4.659 22.767,-4.659 8.049,0 15.659,1.554 22.834,4.659 7.172,3.106 13.428,7.349 18.766,12.729 5.335,5.379 9.557,11.635 12.663,18.765 3.102,7.133 4.657,14.721 4.657,22.769 z m -6.825,-0.262 c 0,-7.261 -1.4,-14.062 -4.2,-20.405 -2.8,-6.342 -6.584,-11.877 -11.351,-16.6 -4.77,-4.725 -10.323,-8.464 -16.666,-11.22 -6.344,-2.755 -13.057,-4.134 -20.143,-4.134 -7.175,0 -13.933,1.379 -20.275,4.134 -6.343,2.756 -11.898,6.496 -16.664,11.22 -4.771,4.723 -8.53,10.258 -11.286,16.6 -2.756,6.343 -4.134,13.145 -4.134,20.405 0,7.263 1.378,14.064 4.134,20.406 2.756,6.343 6.495,11.875 11.22,16.6 4.724,4.724 10.256,8.464 16.6,11.22 6.343,2.756 13.144,4.133 20.406,4.133 7.172,0 13.931,-1.377 20.274,-4.133 6.342,-2.756 11.896,-6.517 16.666,-11.285 4.767,-4.768 8.528,-10.323 11.284,-16.667 2.757,-6.342 4.135,-13.1 4.135,-20.274 z m -6.561,0 c 0,12.511 -4.376,23.184 -13.122,32.019 -0.089,-4.462 -1.008,-8.639 -2.756,-12.532 -1.752,-3.892 -4.114,-7.283 -7.087,-10.17 -2.976,-2.887 -6.43,-5.16 -10.366,-6.823 -3.938,-1.661 -8.093,-2.494 -12.467,-2.494 -4.462,0 -8.661,0.833 -12.598,2.494 -3.937,1.663 -7.394,3.937 -10.367,6.823 -2.975,2.887 -5.337,6.278 -7.086,10.17 -1.751,3.894 -2.67,8.07 -2.756,12.532 -8.749,-8.835 -13.122,-19.508 -13.122,-32.019 0,-6.385 1.224,-12.356 3.674,-17.913 2.448,-5.554 5.773,-10.41 9.973,-14.565 4.2,-4.155 9.075,-7.436 14.632,-9.843 5.556,-2.405 11.438,-3.608 17.65,-3.608 6.211,0 12.093,1.226 17.65,3.674 5.554,2.451 10.409,5.753 14.566,9.908 4.153,4.155 7.456,9.012 9.906,14.566 2.449,5.555 3.676,11.482 3.676,17.781 z m -13.778,32.675 c -8.838,8.749 -19.51,13.122 -32.02,13.122 -12.598,0 -23.315,-4.373 -32.15,-13.122 h 5.904 c 0,-3.587 0.7,-6.976 2.1,-10.17 1.399,-3.193 3.281,-5.971 5.645,-8.333 2.36,-2.362 5.137,-4.242 8.332,-5.643 3.192,-1.398 6.582,-2.1 10.17,-2.1 3.498,0 6.844,0.701 10.039,2.1 3.192,1.4 5.971,3.303 8.333,5.708 2.361,2.407 4.242,5.206 5.643,8.399 1.397,3.194 2.1,6.54 2.1,10.038 h 5.904 z m -38.582,-42.517 c 0,-2.625 -0.833,-4.81 -2.493,-6.561 l 2.493,-2.494 -13.909,-13.91 -4.593,4.592 8.398,8.53 c -2.625,0.088 -4.879,1.073 -6.759,2.953 -1.883,1.882 -2.822,4.178 -2.822,6.889 0,2.712 0.963,5.032 2.888,6.955 1.923,1.926 4.242,2.887 6.956,2.887 2.709,0 5.028,-0.961 6.954,-2.887 1.924,-1.923 2.887,-4.242 2.887,-6.954 z m 32.676,0 c 0,-2.449 -0.811,-4.613 -2.428,-6.496 -1.62,-1.881 -3.654,-2.953 -6.103,-3.216 l 8.53,-8.661 -4.594,-4.592 -13.909,13.91 1.969,1.968 c -2.1,2.014 -3.15,4.375 -3.15,7.086 0,2.712 0.962,5.032 2.888,6.955 1.923,1.926 4.241,2.887 6.955,2.887 2.71,0 5.028,-0.961 6.954,-2.887 1.924,-1.923 2.888,-4.242 2.888,-6.954 z"
       id="path5597"
       inkscape:export-filename="D:\Projects\Unity\GFUnityDev\GlassFitUnity\Assets\Resources\smiley_sad.png"
       inkscape:export-xdpi="90"
       inkscape:export-ydpi="90" />
  </g>
</svg>
