<?xml version="1.0" encoding="UTF-8" standalone="no"?>
<!-- Created with Inkscape (http://www.inkscape.org/) -->

<svg
   xmlns:dc="http://purl.org/dc/elements/1.1/"
   xmlns:cc="http://creativecommons.org/ns#"
   xmlns:rdf="http://www.w3.org/1999/02/22-rdf-syntax-ns#"
   xmlns:svg="http://www.w3.org/2000/svg"
   xmlns="http://www.w3.org/2000/svg"
   xmlns:sodipodi="http://sodipodi.sourceforge.net/DTD/sodipodi-0.dtd"
   xmlns:inkscape="http://www.inkscape.org/namespaces/inkscape"
   width="116.00499"
   height="115.87101"
   id="svg7518"
   version="1.1"
   inkscape:version="0.48.4 r9939"
   sodipodi:docname="smiley_happy.svg">
  <defs
     id="defs7520" />
  <sodipodi:namedview
     id="base"
     pagecolor="#ffffff"
     bordercolor="#666666"
     borderopacity="1.0"
     inkscape:pageopacity="0.0"
     inkscape:pageshadow="2"
     inkscape:zoom="0.35"
     inkscape:cx="109.43107"
     inkscape:cy="203.6498"
     inkscape:document-units="px"
     inkscape:current-layer="layer1"
     showgrid="false"
     inkscape:window-width="463"
     inkscape:window-height="423"
     inkscape:window-x="1599"
     inkscape:window-y="216"
     inkscape:window-maximized="0"
     fit-margin-top="0"
     fit-margin-left="0"
     fit-margin-right="0"
     fit-margin-bottom="0" />
  <metadata
     id="metadata7523">
    <rdf:RDF>
      <cc:Work
         rdf:about="">
        <dc:format>image/svg+xml</dc:format>
        <dc:type
           rdf:resource="http://purl.org/dc/dcmitype/StillImage" />
        <dc:title />
      </cc:Work>
    </rdf:RDF>
  </metadata>
  <g
     inkscape:label="Layer 1"
     inkscape:groupmode="layer"
     id="layer1"
     transform="translate(-265.56893,-162.99811)">
    <path
       style="fill:#47ad4c"
       inkscape:connector-curvature="0"
       d="m 381.57392,220.86811 c 0,7.874 -1.532,15.333 -4.593,22.375 -3.063,7.04201 -7.217,13.21001 -12.467,18.50201 -5.248,5.294 -11.396,9.47 -18.438,12.532 -7.043,3.061 -14.54499,4.592 -22.50499,4.592 -7.962,0 -15.464,-1.532 -22.505,-4.592 -7.043,-3.062 -13.188,-7.218 -18.438,-12.466 -5.249,-5.25 -9.405,-11.395 -12.467,-18.43801 -3.061,-7.041 -4.592,-14.543 -4.592,-22.505 0,-7.96 1.531,-15.439 4.592,-22.439 3.062,-6.998 7.238,-13.123 12.532,-18.372 5.292,-5.249 11.46,-9.403 18.503,-12.466 7.041,-3.062 14.501,-4.593 22.374,-4.593 7.874,0 15.33099,1.531 22.37399,4.593 7.041,3.063 13.209,7.24 18.503,12.531 5.292,5.294 9.469,11.44 12.532,18.438 3.063,7 4.595,14.434 4.595,22.308 z m -6.431,-0.656 c 0,-7.086 -1.356,-13.755 -4.067,-20.011 -2.712,-6.254 -6.409,-11.723 -11.089,-16.403 -4.681,-4.679 -10.149,-8.376 -16.402,-11.089 -6.256,-2.71 -12.92599,-4.068 -20.01299,-4.068 -7.086,0 -13.758,1.357 -20.012,4.068 -6.256,2.713 -11.724,6.41 -16.403,11.089 -4.681,4.68 -8.379,10.148 -11.088,16.403 -2.713,6.256 -4.068,12.925 -4.068,20.011 0,7 1.355,13.628 4.068,19.881 2.709,6.25601 6.407,11.72501 11.088,16.40301 4.68,4.682 10.147,8.378 16.403,11.089 6.254,2.712 12.926,4.068 20.012,4.068 7.087,0 13.75699,-1.355 20.01299,-4.068 6.253,-2.711 11.722,-6.408 16.402,-11.089 4.68,-4.679 8.377,-10.147 11.089,-16.40301 2.711,-6.253 4.067,-12.881 4.067,-19.881 z m -6.56,0 c 0,6.213 -1.182,12.031 -3.543,17.453 -2.363,5.426 -5.6,10.19301 -9.711,14.30401 -4.113,4.114 -8.902,7.349 -14.369,9.711 -5.469,2.362 -11.26499,3.542 -17.38799,3.542 -6.212,0 -12.052,-1.18 -17.519,-3.542 -5.468,-2.362 -10.235,-5.578 -14.304,-9.646 -4.067,-4.069 -7.283,-8.83401 -9.645,-14.30401 -2.362,-5.466 -3.544,-11.306 -3.544,-17.519 0,-6.122 1.182,-11.918 3.544,-17.387 2.361,-5.466 5.597,-10.255 9.711,-14.37 4.11,-4.111 8.878,-7.348 14.304,-9.71 5.422,-2.362 11.24,-3.543 17.452,-3.543 6.123,0 11.91899,1.203 17.38799,3.608 5.467,2.408 10.236,5.643 14.304,9.711 4.068,4.067 7.304,8.837 9.71,14.303 2.407,5.47 3.61,11.267 3.61,17.389 z m -12.861,4.331 h -64.29999 c 0,4.375 0.853,8.508 2.559,12.4 1.705,3.894 4.022,7.306 6.954,10.23601 2.931,2.932 6.342,5.249 10.235,6.955 3.893,1.707 8.026,2.559 12.401,2.559 4.374,0 8.507,-0.853 12.39999,-2.559 3.893,-1.706 7.304,-4.022 10.235,-6.955 2.931,-2.93001 5.25,-6.34201 6.956,-10.23601 1.708,-3.892 2.56,-8.025 2.56,-12.4 z m -38.57999,-16.141 c 0,-2.625 -0.941,-4.898 -2.821,-6.824 -1.883,-1.923 -4.18,-2.887 -6.89,-2.887 -2.624,0 -4.878,0.964 -6.758,2.887 -1.882,1.925 -2.821,4.199 -2.821,6.824 0,2.624 0.939,4.9 2.821,6.823 1.88,1.926 4.134,2.887 6.758,2.887 2.71,0 5.007,-0.961 6.89,-2.887 1.88,-1.923 2.821,-4.199 2.821,-6.823 z m 31.36299,22.571 c -0.701,2.801 -1.859,5.38 -3.477,7.742 -1.62,2.362 -3.523,4.396 -5.709,6.102 -2.188,1.70601 -4.638,3.04101 -7.34899,4.00201 -2.712,0.963 -5.511,1.443 -8.398,1.443 -2.887,0 -5.688,-0.479 -8.398,-1.443 -2.712,-0.962 -5.163,-2.296 -7.349,-4.00201 -2.188,-1.706 -4.09,-3.74 -5.708,-6.102 -1.62,-2.362 -2.778,-4.941 -3.478,-7.742 h 49.86599 z m 0.788,-22.571 c 0,-2.625 -0.941,-4.898 -2.821,-6.824 -1.883,-1.923 -4.135,-2.887 -6.758,-2.887 -2.713,0 -5.01,0.964 -6.88999,2.887 -1.883,1.925 -2.822,4.199 -2.822,6.824 0,2.624 0.939,4.9 2.822,6.823 1.87999,1.926 4.17699,2.887 6.88999,2.887 2.623,0 4.875,-0.961 6.758,-2.887 1.879,-1.923 2.821,-4.199 2.821,-6.823 z"
       id="path5599" />
  </g>
</svg>
