<?xml version="1.0" encoding="UTF-8" standalone="no"?>
<!-- Created with Inkscape (http://www.inkscape.org/) -->

<svg
   xmlns:dc="http://purl.org/dc/elements/1.1/"
   xmlns:cc="http://creativecommons.org/ns#"
   xmlns:rdf="http://www.w3.org/1999/02/22-rdf-syntax-ns#"
   xmlns:svg="http://www.w3.org/2000/svg"
   xmlns="http://www.w3.org/2000/svg"
   xmlns:sodipodi="http://sodipodi.sourceforge.net/DTD/sodipodi-0.dtd"
   xmlns:inkscape="http://www.inkscape.org/namespaces/inkscape"
   width="117.055"
   height="117.18401"
   id="svg7518"
   version="1.1"
   inkscape:version="0.48.4 r9939"
   sodipodi:docname="smiley_meh.svg">
  <defs
     id="defs7520" />
  <sodipodi:namedview
     id="base"
     pagecolor="#ffffff"
     bordercolor="#666666"
     borderopacity="1.0"
     inkscape:pageopacity="0.0"
     inkscape:pageshadow="2"
     inkscape:zoom="0.35"
     inkscape:cx="58.5275"
     inkscape:cy="58.592005"
     inkscape:document-units="px"
     inkscape:current-layer="layer1"
     showgrid="false"
     inkscape:window-width="463"
     inkscape:window-height="423"
     inkscape:window-x="1416"
     inkscape:window-y="50"
     inkscape:window-maximized="0"
     fit-margin-top="0"
     fit-margin-left="0"
     fit-margin-right="0"
     fit-margin-bottom="0" />
  <metadata
     id="metadata7523">
    <rdf:RDF>
      <cc:Work
         rdf:about="">
        <dc:format>image/svg+xml</dc:format>
        <dc:type
           rdf:resource="http://purl.org/dc/dcmitype/StillImage" />
        <dc:title></dc:title>
      </cc:Work>
    </rdf:RDF>
  </metadata>
  <g
     inkscape:label="Layer 1"
     inkscape:groupmode="layer"
     id="layer1"
     transform="translate(-316.4725,-16.627325)">
    <path
       style="fill:#ff8d20"
       inkscape:connector-curvature="0"
       d="m 433.5275,75.153325 c 0,8.051 -1.554,15.615 -4.659,22.703 -3.105,7.085005 -7.305,13.298005 -12.598,18.634005 -5.294,5.337 -11.504,9.559 -18.635,12.663 -7.13,3.105 -14.676,4.658 -22.636,4.658 -8.05,0 -15.638,-1.553 -22.768,-4.658 -7.131,-3.104 -13.342,-7.303 -18.634,-12.597 -5.294,-5.292 -9.471,-11.503 -12.531,-18.634005 -3.063,-7.129 -4.594,-14.717 -4.594,-22.768 0,-7.96 1.531,-15.505 4.594,-22.636 3.061,-7.129 7.26,-13.34 12.596,-18.634 5.336,-5.293 11.549,-9.492 18.635,-12.598 7.087,-3.104 14.652,-4.659 22.702,-4.659 7.96,0 15.506,1.554 22.636,4.659 7.131,3.106 13.341,7.305 18.635,12.598 5.293,5.293 9.492,11.505 12.598,18.634 3.105,7.13 4.659,14.675 4.659,22.635 z m -6.431,-0.656 c 0,-7.085 -1.377,-13.778 -4.133,-20.077 -2.756,-6.298 -6.519,-11.831 -11.286,-16.601 -4.769,-4.767 -10.302,-8.529 -16.599,-11.285 -6.3,-2.755 -12.992,-4.134 -20.079,-4.134 -7.086,0 -13.778,1.358 -20.077,4.068 -6.299,2.713 -11.811,6.43 -16.534,11.154 -4.726,4.724 -8.487,10.259 -11.285,16.6 -2.802,6.344 -4.199,13.102 -4.199,20.274 0,7.175 1.377,13.91 4.134,20.209 2.755,6.299005 6.495,11.810005 11.219,16.534005 4.725,4.725 10.235,8.464 16.535,11.221 6.299,2.754 13.034,4.133 20.208,4.133 7.173,0 13.931,-1.398 20.274,-4.199 6.342,-2.799 11.877,-6.562 16.6,-11.286 4.725,-4.725 8.441,-10.236 11.155,-16.535005 2.71,-6.298 4.067,-12.989 4.067,-20.076 z m -6.56,0 c 0,6.213 -1.182,12.073 -3.543,17.584 -2.363,5.513 -5.623,10.347005 -9.777,14.501005 -4.155,4.156 -8.988,7.437 -14.5,9.842 -5.512,2.407 -11.417,3.609 -17.716,3.609 -6.299,0 -12.204,-1.202 -17.715,-3.609 -5.512,-2.405 -10.324,-5.663 -14.435,-9.777 -4.113,-4.111 -7.371,-8.923005 -9.776,-14.435005 -2.407,-5.511 -3.609,-11.416 -3.609,-17.715 0,-6.298 1.202,-12.203 3.609,-17.715 2.405,-5.512 5.686,-10.344 9.841,-14.5 4.154,-4.154 8.99,-7.415 14.502,-9.776 5.511,-2.362 11.371,-3.544 17.583,-3.544 6.211,0 12.073,1.205 17.585,3.609 5.512,2.407 10.344,5.688 14.5,9.842 4.154,4.157 7.435,8.989 9.842,14.5 2.406,5.512 3.609,11.374 3.609,17.584 z m -52.097,-9.71 c 0,-2.711 -0.941,-5.03 -2.821,-6.955 -1.883,-1.923 -4.18,-2.887 -6.891,-2.887 -2.711,0 -5.008,0.964 -6.889,2.887 -1.882,1.925 -2.821,4.244 -2.821,6.955 0,2.625 0.939,4.9 2.821,6.823 1.881,1.926 4.178,2.887 6.889,2.887 2.711,0 5.008,-0.961 6.891,-2.887 1.88,-1.923 2.821,-4.199 2.821,-6.823 z m 30.296,47.369005 2.953,-5.749 -46.749,-23.114005 -2.88,5.857 46.676,23.006005 z m 2.248,-47.369005 c 0,-2.711 -0.941,-5.03 -2.822,-6.955 -1.882,-1.923 -4.178,-2.887 -6.889,-2.887 -2.713,0 -5.009,0.964 -6.889,2.887 -1.883,1.925 -2.822,4.244 -2.822,6.955 0,2.625 0.939,4.9 2.822,6.823 1.88,1.926 4.176,2.887 6.889,2.887 2.711,0 5.007,-0.961 6.889,-2.887 1.881,-1.923 2.822,-4.199 2.822,-6.823 z"
       id="path5601" />
  </g>
</svg>
